HIERARCHY
ROOT Hips
{
	OFFSET -3.958830 18.904000 13.208200
	CHANNELS 6 Xposition Yposition Zposition Zrotation Yrotation Xrotation 
	JOINT LHipJoint
	{
		OFFSET 0.000000 0.000000 0.000000
		CHANNELS 3 Zrotation Yrotation Xrotation
		JOINT LeftUpLeg
		{
			OFFSET 1.800000 -1.400000 0.085000
			CHANNELS 3 Zrotation Yrotation Xrotation
			JOINT LeftLeg
			{
				OFFSET 2.215000 -6.000000 0.000000
				CHANNELS 3 Zrotation Yrotation Xrotation
				JOINT LeftFoot
				{
					OFFSET 2.500000 -6.900000 0.000000
					CHANNELS 3 Zrotation Yrotation Xrotation
					JOINT LeftToeBase
					{
						OFFSET 0.200000 -0.500000 1.950000
						CHANNELS 3 Zrotation Yrotation Xrotation
						End Site
						{
							OFFSET 0.000000 0.000000 0.000000
						}
					}
				}
			}
		}
	}
	JOINT RHipJoint
	{
		OFFSET 0.000000 0.000000 0.000000
		CHANNELS 3 Zrotation Yrotation Xrotation
		JOINT RightUpLeg
		{
			OFFSET -1.800000 -1.400000 0.085000
			CHANNELS 3 Zrotation Yrotation Xrotation
			JOINT RightLeg
			{
				OFFSET -2.215000 -6.000000 0.000000
				CHANNELS 3 Zrotation Yrotation Xrotation
				JOINT RightFoot
				{
					OFFSET -2.500000 -6.900000 0.000000
					CHANNELS 3 Zrotation Yrotation Xrotation
					JOINT RightToeBase
					{
						OFFSET -0.200000 -0.500000 1.950000
						CHANNELS 3 Zrotation Yrotation Xrotation
						End Site
						{
							OFFSET 0.000000 0.000000 0.000000
						}
					}
				}
			}
		}
	}
	JOINT LowerBack
	{
		OFFSET 0.000000 0.000000 0.000000
		CHANNELS 3 Zrotation Yrotation Xrotation
		JOINT Spine
		{
			OFFSET -0.087000 1.940000 -0.288900
			CHANNELS 3 Zrotation Yrotation Xrotation
			JOINT Spine1
			{
				OFFSET 0.000000 1.950000 0.060000
				CHANNELS 3 Zrotation Yrotation Xrotation
				JOINT Neck
				{
					OFFSET 0.000000 0.000000 0.000000
					CHANNELS 3 Zrotation Yrotation Xrotation
					JOINT Neck1
					{
						OFFSET 0.000000 1.600000 0.340000
						CHANNELS 3 Zrotation Yrotation Xrotation
						JOINT Head
						{
							OFFSET 0.000000 1.667000 -0.240000
							CHANNELS 3 Zrotation Yrotation Xrotation
							End Site
							{
								OFFSET 0.000000 0.000000 0.000000
							}
						}
					}
				}
				JOINT LeftShoulder
				{
					OFFSET 0.000000 0.000000 0.000000
					CHANNELS 3 Zrotation Yrotation Xrotation
					JOINT LeftArm
					{
						OFFSET 2.700000 1.550000 -0.730000
						CHANNELS 3 Zrotation Yrotation Xrotation
						JOINT LeftForeArm
						{
							OFFSET 5.450000 0.000000 0.000000
							CHANNELS 3 Zrotation Yrotation Xrotation
							JOINT LeftHand
							{
								OFFSET 3.450000 0.000000 0.000000
								CHANNELS 3 Zrotation Yrotation Xrotation
								JOINT LeftHandIndex1
								{
									OFFSET 0.750000 0.000000 0.000000
									CHANNELS 3 Zrotation Yrotation Xrotation
									End Site
									{
										OFFSET 0.000000 0.000000 0.000000
									}
								}
							}
						}
					}
				}
				JOINT RightShoulder
				{
					OFFSET 0.000000 0.000000 0.000000
					CHANNELS 3 Zrotation Yrotation Xrotation
					JOINT RightArm
					{
						OFFSET -2.700000 1.550000 -0.730000
						CHANNELS 3 Zrotation Yrotation Xrotation
						JOINT RightForeArm
						{
							OFFSET -5.450000 0.000000 0.000000
							CHANNELS 3 Zrotation Yrotation Xrotation
							JOINT RightHand
							{
								OFFSET -3.450000 0.000000 0.000000
								CHANNELS 3 Zrotation Yrotation Xrotation
								JOINT RightHandIndex1
								{
									OFFSET -0.750000 0.000000 0.000000
									CHANNELS 3 Zrotation Yrotation Xrotation
									End Site
									{
										OFFSET 0.000000 0.000000 0.000000
									}
								}
							}
						}
					}
				}
			}
		}
	}
}
MOTION
Frames: 13
Frame Time: 0.016667
-1.866240 16.329350 -1.627250 -2.277696 -15.102070 -14.986065 -15.281938 14.773676 2.711357 5.935176 0.535912 -6.502890 -3.297088 7.908448 24.436227 -0.512227 5.813061 2.530595 0.104360 -0.208500 0.107870 17.964613 -10.834390 2.572375 -4.195810 3.151541 -7.601672 5.147326 -7.648337 34.408012 -0.410617 -5.633642 2.475353 0.120170 0.372760 0.079670 -2.634790 -4.222759 -7.317330 2.195639 0.800539 25.786098 4.996775 0.791278 14.092263 -2.462396 -9.249233 -12.177915 -19.771363 18.258390 31.154748 1.728830 12.427930 -11.330050 -14.206877 -15.719148 8.077433 -2.665775 0.096812 -3.317187 140.521549 -42.911054 -105.099063 -4.163764 2.700693 0.546500 0.194630 -0.227680 -0.054290 19.656586 24.964085 7.276421 16.770494 23.283460 -4.914604 -118.200350 47.196083 -78.720342 1.809649 -0.987398 -0.476160 0.337590 0.318640 -0.326470 
-1.866990 16.342270 -1.629820 -2.831078 -16.527286 -15.175802 -15.232775 14.717083 2.677072 6.856570 0.638179 -6.246291 -3.847364 8.269280 24.887096 -0.463836 5.945736 2.482325 0.125220 -0.167620 0.103350 18.011180 -10.873160 2.596785 -4.272004 2.933882 -6.744992 6.021358 -7.894930 33.288152 -0.423562 -5.620878 2.491709 0.134010 0.372070 0.077980 -2.751619 -4.046511 -7.308032 3.436700 0.584530 25.926146 4.343945 0.576841 15.098741 -2.325881 -9.356168 -12.405469 -19.923957 18.517039 31.133382 2.177830 12.393940 -11.207540 -13.853970 -16.581484 8.364243 -3.523933 -0.108222 -4.439157 138.394795 -39.261540 -97.162808 -4.138584 2.682129 0.527950 0.193240 -0.222290 -0.038890 18.980577 25.934464 7.408945 16.430303 24.413316 -4.735816 -121.431298 44.613503 -80.199459 1.820292 -1.120340 -0.454960 0.337380 0.301870 -0.309730 
-1.870150 16.355720 -1.633360 -3.066406 -17.688565 -15.196518 -15.177005 14.607293 2.659907 7.542004 0.682936 -6.126095 -4.720812 8.675112 25.120437 -0.442992 6.085354 2.433654 0.153060 -0.121560 0.103850 18.071302 -10.931711 2.598044 -4.520426 2.711894 -6.197374 6.620317 -8.012418 32.178234 -0.422332 -5.593365 2.506642 0.167670 0.384330 0.076160 -2.913189 -3.782895 -7.268777 4.425666 0.381223 25.542498 3.444855 0.338523 16.308231 -2.422280 -9.415909 -12.444852 -19.913745 18.790642 30.674726 2.722700 12.291150 -11.015820 -12.882090 -17.096755 8.494648 -4.975127 -1.327340 -5.463793 135.569320 -36.367436 -89.200088 -4.124180 2.667287 0.505820 0.205030 -0.228000 -0.021370 18.100893 26.354038 7.383808 15.808175 25.293045 -4.312962 -123.529016 43.352326 -81.681915 1.808647 -1.198641 -0.448050 0.348960 0.288120 -0.298330 
-1.871380 16.369510 -1.633610 -3.348724 -18.543209 -14.960262 -15.115753 14.464453 2.648195 8.317873 0.701453 -6.267510 -5.822831 9.148849 25.264604 -0.418958 6.236992 2.380775 0.178220 -0.080480 0.101040 18.140022 -10.989546 2.608349 -4.626351 2.587306 -5.954335 7.162999 -8.109563 31.321482 -0.421013 -5.590571 2.508221 0.199170 0.405340 0.084790 -3.110081 -3.456047 -7.232470 5.626802 0.029929 24.836714 2.336258 0.053382 17.288908 -2.395641 -9.496643 -12.395014 -19.901382 18.998630 30.199455 3.006780 12.219200 -10.352230 -12.143452 -17.626002 8.623057 -5.888373 -2.589559 -6.018022 134.786976 -33.360882 -83.956236 -4.128242 2.692486 0.472340 0.228090 -0.239550 -0.002350 17.251136 26.761965 7.163170 14.792569 26.571848 -3.651837 -124.008994 42.849736 -81.513573 1.788811 -1.240789 -0.436710 0.352660 0.276980 -0.283350 
-1.872370 16.389850 -1.631420 -3.665791 -19.509030 -14.701141 -15.063921 14.330748 2.649666 9.316313 0.708038 -6.292101 -7.048761 9.635670 25.180242 -0.386486 6.391899 2.323985 0.193790 -0.052390 0.099450 18.201124 -11.029890 2.615710 -4.515296 2.367359 -5.619386 7.507486 -8.138550 30.383682 -0.418813 -5.559185 2.519578 0.218510 0.416000 0.092840 -3.282820 -3.177890 -7.208376 6.677277 -0.289390 24.144098 1.235729 -0.231382 18.085289 -2.288589 -9.413375 -12.431199 -19.681040 19.246271 30.154988 3.108910 12.365480 -9.605750 -11.307294 -18.116645 8.629101 -5.490893 -3.713518 -6.123895 133.592209 -33.026184 -81.520619 -4.135037 2.707447 0.444960 0.245410 -0.245680 0.010070 16.156535 26.876061 7.146998 14.052008 27.202417 -3.076783 -125.452161 42.145645 -82.624354 1.780224 -1.298930 -0.424920 0.347540 0.267430 -0.273120 
-1.873280 16.414160 -1.630500 -4.077577 -20.372809 -14.471049 -15.052694 14.243720 2.680852 10.748109 0.791938 -6.210011 -8.588819 10.217940 24.718342 -0.343133 6.574291 2.252730 0.194350 -0.042210 0.091130 18.225567 -11.010548 2.607347 -4.093112 2.078226 -5.171446 7.334682 -7.894014 29.108982 -0.398181 -5.424850 2.572934 0.221530 0.416810 0.096220 -3.337538 -3.074079 -7.215209 7.288860 -0.454306 23.767249 0.696899 -0.354681 18.474296 -2.009471 -9.308597 -12.429857 -19.508773 19.344187 30.451329 2.971610 12.543510 -9.080630 -10.496919 -18.111594 8.491112 -4.356097 -4.248574 -5.860935 133.661375 -32.693081 -80.442070 -4.137396 2.722728 0.429800 0.254080 -0.248070 0.013210 14.763901 26.627435 7.095487 12.632589 27.289524 -2.701593 -127.230028 41.468689 -84.005812 1.778537 -1.347828 -0.415500 0.337810 0.265270 -0.267650 
-1.867790 16.440500 -1.630010 -4.737323 -21.005248 -14.073769 -15.040875 14.134045 2.727228 12.373258 0.851151 -6.236658 -10.205126 10.793661 24.119295 -0.282225 6.767425 2.194057 0.183090 -0.047220 0.075830 18.254280 -10.976546 2.610051 -3.444429 1.723568 -4.761682 7.138983 -7.580821 27.410917 -0.373086 -5.237664 2.657617 0.210070 0.433150 0.097650 -3.407118 -2.948883 -7.236814 8.219443 -0.766839 23.427502 0.109109 -0.572265 18.641487 -1.547973 -9.171871 -12.456403 -19.239429 19.375093 30.896109 2.656100 12.805220 -8.198050 -9.564718 -17.765331 8.394699 -3.173881 -4.114283 -5.354925 134.838173 -32.109535 -80.442500 -4.143747 2.734639 0.413730 0.268410 -0.252310 0.026470 12.932601 25.979117 6.971228 11.068038 27.137363 -2.354791 -129.231594 40.360896 -85.072422 1.774956 -1.401131 -0.409960 0.339080 0.261100 -0.256640 
-1.862380 16.479210 -1.630760 -5.356766 -21.719438 -13.957311 -15.058140 14.053921 2.801944 14.201222 1.020704 -5.843895 -11.947714 11.375150 23.162680 -0.203824 6.960311 2.126088 0.180330 -0.046580 0.080450 18.258601 -10.888922 2.613053 -2.670908 1.280835 -3.814301 6.756371 -7.189306 25.458020 -0.361519 -5.026108 2.751631 0.189600 0.410400 0.090810 -3.392871 -2.963973 -7.295448 8.900957 -0.979224 23.614349 -0.151249 -0.627330 18.691776 -0.975190 -9.210594 -12.572524 -19.587247 19.275807 31.781168 1.956600 12.977990 -8.151950 -8.952241 -17.212162 8.238315 -1.662289 -3.334424 -4.828605 136.702176 -31.358015 -81.036781 -4.123060 2.744438 0.418000 0.252690 -0.236280 0.026470 11.194794 25.356850 6.993208 8.797280 26.187010 -2.467925 -131.542655 39.576286 -86.923190 1.793363 -1.437228 -0.394080 0.329090 0.248690 -0.254920 
-1.857720 16.509220 -1.624350 -5.747195 -22.239864 -13.242676 -15.072753 13.959804 2.890098 15.495960 1.039000 -6.144918 -13.420807 11.743270 22.218978 -0.126576 7.070910 2.092869 0.161820 -0.063340 0.066500 18.262766 -10.813253 2.611581 -2.020648 0.965861 -3.628590 6.376046 -6.846737 23.880256 -0.333027 -4.835828 2.838434 0.157180 0.416000 0.097260 -3.384680 -2.945928 -7.351504 9.373137 -1.147230 22.881439 -0.488348 -0.660066 18.340869 -0.384126 -8.963294 -12.740303 -19.344083 19.124853 33.001390 1.556600 13.201600 -6.557910 -8.340250 -16.510178 8.056835 -0.114514 -2.975148 -3.727209 138.813746 -31.414036 -82.800085 -4.127100 2.760328 0.395880 0.262840 -0.235840 0.034840 9.454144 24.285801 7.082814 6.670465 24.847735 -2.165713 -134.092779 38.941001 -89.146694 1.810670 -1.491158 -0.372640 0.308260 0.239580 -0.240130 
-1.852190 16.539120 -1.622560 -6.145776 -22.599141 -12.540749 -15.082889 13.815843 2.999201 17.035994 1.074916 -6.491935 -15.134915 12.211077 21.320079 -0.038666 7.211456 2.037657 0.175030 -0.032230 0.078450 18.279303 -10.734943 2.602603 -1.347680 0.679159 -3.463067 5.962572 -6.522546 22.556200 -0.320548 -4.670781 2.910492 0.151380 0.390170 0.087740 -3.414449 -2.861568 -7.406196 9.939732 -1.360422 22.251196 -0.860793 -0.721289 17.992114 0.042661 -8.779585 -12.672924 -19.167354 18.939512 34.072056 0.919170 13.447970 -5.861620 -7.299500 -15.263101 7.740352 1.549152 -2.304592 -2.449361 140.682835 -32.763511 -86.289944 -4.108687 2.782656 0.368580 0.254930 -0.224210 0.042290 7.560097 22.734071 6.843453 4.145595 23.624525 -1.788781 -136.352228 38.918970 -91.724628 1.835551 -1.544127 -0.340290 0.286930 0.207800 -0.229200 
-1.848960 16.570540 -1.624030 -6.297476 -22.707194 -11.996047 -15.084369 13.646503 3.119724 18.558792 1.113630 -6.899906 -16.816628 12.715080 20.684556 0.039295 7.387278 1.964502 0.203920 0.016890 0.094260 18.304114 -10.677623 2.584343 -0.942318 0.421987 -3.315374 5.638213 -6.258873 21.377596 -0.319262 -4.541065 2.961112 0.164200 0.356690 0.077970 -3.476398 -2.718313 -7.458490 10.486316 -1.423896 21.816203 -1.395800 -0.572972 17.511018 0.252693 -8.688877 -12.440975 -19.198414 18.545153 34.889955 0.462330 13.220010 -5.839970 -6.357005 -13.844930 7.149098 3.818170 -1.961469 -1.122226 141.723326 -35.636547 -90.698129 -4.083752 2.804819 0.348040 0.238750 -0.207720 0.054700 6.118416 21.093057 6.613726 1.154692 21.821316 -1.589338 -139.193139 38.760542 -94.992320 1.857845 -1.609271 -0.310290 0.270740 0.172600 -0.219800 
-1.843040 16.606640 -1.634040 -6.249801 -22.440424 -11.964983 -15.073803 13.460723 3.220551 20.051281 1.158166 -7.116077 -18.163879 13.196397 20.431576 0.094114 7.615345 1.881271 0.234310 0.051720 0.114350 18.340076 -10.661026 2.571227 -0.713027 0.091150 -2.756477 5.208711 -6.018748 20.121018 -0.326401 -4.471898 2.987194 0.182160 0.343020 0.087470 -3.577570 -2.484903 -7.500407 11.159629 -1.354189 21.942368 -2.151254 -0.167117 17.334099 0.326105 -8.502680 -11.957352 -18.792602 17.608027 35.262238 -0.093890 12.455350 -6.163860 -5.073447 -12.254305 6.321791 6.209743 -2.375912 0.133975 141.999318 -39.777565 -95.999667 -4.080001 2.833648 0.332450 0.239000 -0.199760 0.068770 4.525567 19.231824 6.284993 -2.197215 19.503024 -1.723030 -141.884699 38.418405 -98.204422 1.866530 -1.680019 -0.291160 0.261020 0.147860 -0.214450 
-1.838980 16.636300 -1.645730 -6.215880 -22.128223 -11.785090 -15.043305 13.287370 3.296795 21.513305 1.202952 -7.552183 -18.872100 13.542570 20.462737 0.135594 7.783068 1.816840 0.266060 0.087740 0.129670 18.390678 -10.671995 2.573378 -0.399968 -0.161669 -2.446881 4.679352 -5.755358 19.036539 -0.327708 -4.402957 3.016332 0.199550 0.338410 0.096720 -3.728277 -2.206761 -7.533369 11.948626 -1.570826 22.020111 -3.150288 -0.027446 16.731434 0.308030 -8.483084 -11.551669 -18.685969 17.062870 35.471765 -0.104730 11.746180 -5.999280 -3.484378 -10.625688 5.668288 8.709707 -1.458596 1.291350 143.032317 -43.224791 -101.305009 -4.077417 2.895299 0.310770 0.242880 -0.197840 0.086260 2.866166 17.467144 5.827440 -5.379746 17.800003 -1.586947 -143.566319 38.692576 -100.442806 1.882912 -1.735283 -0.269690 0.249810 0.121560 -0.203630 
